<?xml version="1.0" encoding="UTF-8"?>
<svg width="370px" height="370px" viewBox="0 0 370 370" version="1.1" xmlns="http://www.w3.org/2000/svg" xmlns:xlink="http://www.w3.org/1999/xlink">
    <title>logo-lightbg</title>
    <defs>
        <linearGradient x1="50%" y1="0%" x2="50%" y2="205.883495%" id="linearGradient-1">
            <stop stop-color="#430000" offset="0%"></stop>
            <stop stop-color="#1B0101" offset="100%"></stop>
        </linearGradient>
        <polygon id="path-2" points="59.3045971 36.7335801 111.512262 0 370 0 370 370 0 370 0 79.2959289"></polygon>
    </defs>
    <g id="页面-1" stroke="none" stroke-width="1" fill="none" fill-rule="evenodd">
        <g id="finalversion-light-bg" transform="translate(-309.000000, -310.000000)">
            <g id="logo-lightbg" transform="translate(309.000000, 310.000000)">
                <mask id="mask-3" fill="white">
                    <use xlink:href="#path-2"></use>
                </mask>
                <use id="bg" fill="url(#linearGradient-1)" xlink:href="#path-2"></use>
                <g id="icon" mask="url(#mask-3)">
                    <g transform="translate(-11.000000, -19.000000)">
                        <g id="编组-3备份-2" stroke="none" stroke-width="1" fill="none" fill-rule="evenodd" transform="translate(24.601914, 95.743232) rotate(-90.000000) translate(-24.601914, -95.743232) translate(-30.398086, 71.743232)">
                            <rect id="矩形备份-3" stroke="#FFFFFF" stroke-width="8" fill="#FFFFFF" x="55.3270903" y="21.8990032" width="1" height="21.2036368"></rect>
                            <path d="M40.8715719,33.9139008 C42.9713622,33.9139008 44.6735786,35.6161171 44.6735786,37.7159074 L44.6735786,47.1026399 L44.6735786,47.1026399 L37.0695652,47.1026399 L37.0695652,37.7159074 C37.0695652,35.6161171 38.7717816,33.9139008 40.8715719,33.9139008 Z" id="矩形备份-4" fill="#FFFFFF"></path>
                            <path d="M69.3866221,33.9139008 C71.4864124,33.9139008 73.1886288,35.6161171 73.1886288,37.7159074 L73.1886288,47.1026399 L73.1886288,47.1026399 L65.5846154,47.1026399 L65.5846154,37.7159074 C65.5846154,35.6161171 67.2868318,33.9139008 69.3866221,33.9139008 Z" id="矩形备份-5" fill="#FFFFFF"></path>
                            <ellipse id="椭圆形备份-3" stroke="#FFFFFF" stroke-width="4" cx="5.70301003" cy="5.65231679" rx="3.70301003" ry="3.65231679"></ellipse>
                            <ellipse id="椭圆形备份-4" stroke="#FFFFFF" stroke-width="4" cx="55.6043478" cy="12.7177128" rx="5.12876254" ry="5.06539599"></ellipse>
                            <ellipse id="椭圆形备份-5" stroke="#FFFFFF" stroke-width="4" cx="103.604682" cy="6.59436959" rx="3.70301003" ry="3.65231679"></ellipse>
                            <polygon id="路径-4备份-2" fill="#FFFFFF" points="5.3665839 10.3625808 23.1026805 30.1843915 23.1026805 47.1026399 30.3410594 47.1026399 30.3410594 27.5009038 11.0314814 5.28824907"></polygon>
                            <polygon id="路径-4备份-3" fill="#FFFFFF" transform="translate(92.329378, 26.559512) scale(-1, 1) translate(-92.329378, -26.559512) " points="79.8421405 10.7266485 97.5782371 30.5484592 97.5782371 47.4667077 104.816616 47.4667077 104.816616 27.8649715 85.507038 5.65231679"></polygon>
                        </g>
                        <g id="编组-3备份-4" stroke="none" stroke-width="1" fill="none" fill-rule="evenodd" transform="translate(99.443787, 24.000000) rotate(-360.000000) translate(-99.443787, -24.000000) translate(44.443787, 0.000000)">
                            <rect id="矩形备份-3" stroke="#FFFFFF" stroke-width="8" x="55.3270903" y="21.8990032" width="1" height="21.2036368"></rect>
                            <path d="M40.8715719,33.9139008 C42.9713622,33.9139008 44.6735786,35.6161171 44.6735786,37.7159074 L44.6735786,47.1026399 L44.6735786,47.1026399 L37.0695652,47.1026399 L37.0695652,37.7159074 C37.0695652,35.6161171 38.7717816,33.9139008 40.8715719,33.9139008 Z" id="矩形备份-4" fill="#FFFFFF"></path>
                            <path d="M69.3866221,33.9139008 C71.4864124,33.9139008 73.1886288,35.6161171 73.1886288,37.7159074 L73.1886288,47.1026399 L73.1886288,47.1026399 L65.5846154,47.1026399 L65.5846154,37.7159074 C65.5846154,35.6161171 67.2868318,33.9139008 69.3866221,33.9139008 Z" id="矩形备份-5" fill="#FFFFFF"></path>
                            <ellipse id="椭圆形备份-4" stroke="#FFFFFF" stroke-width="4" cx="55.6043478" cy="12.7177128" rx="5.12876254" ry="5.06539599"></ellipse>
                            <polygon id="路径-4备份-2" fill="#FFFFFF" points="5.3665839 10.3625808 23.1026805 30.1843915 23.1026805 47.1026399 30.3410594 47.1026399 30.3410594 27.5009038 11.0314814 5.28824907"></polygon>
                            <polygon id="路径-4备份-3" fill="#FFFFFF" transform="translate(92.329378, 26.559512) scale(-1, 1) translate(-92.329378, -26.559512) " points="79.8421405 10.7266485 97.5782371 30.5484592 97.5782371 47.4667077 104.816616 47.4667077 104.816616 27.8649715 85.507038 5.65231679"></polygon>
                        </g>
                        <g id="编组-3备份-3" stroke="none" stroke-width="1" fill="none" fill-rule="evenodd" transform="translate(132.395541, 128.634938) rotate(-270.000000) translate(-132.395541, -128.634938) translate(46.395541, 58.634938)">
                            <rect id="矩形备份-3" stroke="#FFFFFF" stroke-width="8" fill="#FFFFFF" x="55.3270903" y="21.8990032" width="1" height="21.2036368"></rect>
                            <path d="M40.8715719,33.9139008 C42.9713622,33.9139008 44.6735786,35.6161171 44.6735786,37.7159074 L44.6735786,47.1026399 L44.6735786,47.1026399 L37.0695652,47.1026399 L37.0695652,37.7159074 C37.0695652,35.6161171 38.7717816,33.9139008 40.8715719,33.9139008 Z" id="矩形备份-4" fill="#FFFFFF"></path>
                            <path d="M69.3866221,33.9139008 C71.4864124,33.9139008 73.1886288,35.6161171 73.1886288,37.7159074 L73.1886288,47.1026399 L73.1886288,47.1026399 L65.5846154,47.1026399 L65.5846154,37.7159074 C65.5846154,35.6161171 67.2868318,33.9139008 69.3866221,33.9139008 Z" id="矩形备份-5" fill="#FFFFFF"></path>
                            <ellipse id="椭圆形备份-3" stroke="#FFFFFF" stroke-width="4" cx="5.70301003" cy="5.65231679" rx="3.70301003" ry="3.65231679"></ellipse>
                            <ellipse id="椭圆形备份-4" stroke="#FFFFFF" stroke-width="4" cx="55.6043478" cy="12.7177128" rx="5.12876254" ry="5.06539599"></ellipse>
                            <ellipse id="椭圆形备份-6" stroke="#FFFFFF" stroke-width="4" cx="144.142012" cy="73.5781222" rx="5.05210918" ry="4.60614525"></ellipse>
                            <ellipse id="椭圆形备份-7" stroke="#FFFFFF" stroke-width="4" cx="163.961538" cy="101.785006" rx="5.05210918" ry="5.20670391"></ellipse>
                            <ellipse id="椭圆形备份-8" stroke="#FFFFFF" stroke-width="4" cx="136.934911" cy="133.014057" rx="5.05210918" ry="4.60614525"></ellipse>
                            <ellipse id="椭圆形备份-5" stroke="#FFFFFF" stroke-width="4" cx="103.604682" cy="6.59436959" rx="3.70301003" ry="3.65231679"></ellipse>
                            <polygon id="路径-4备份-2" fill="#FFFFFF" points="5.3665839 10.3625808 23.1026805 30.1843915 23.1026805 47.1026399 30.3410594 47.1026399 30.3410594 27.5009038 11.0314814 5.28824907"></polygon>
                            <polygon id="路径-4备份-3" fill="#FFFFFF" transform="translate(92.329378, 26.559512) scale(-1, 1) translate(-92.329378, -26.559512) " points="79.8421405 10.7266485 97.5782371 30.5484592 97.5782371 47.4667077 104.816616 47.4667077 104.816616 27.8649715 85.507038 5.65231679"></polygon>
                        </g>
                        <rect id="矩形" stroke="#FFFFFF" stroke-width="8" fill="none" x="60" y="62" width="81" height="81" rx="5"></rect>
                        <rect id="矩形备份" stroke="#FFFFFF" stroke-width="8" fill="none" x="82" y="85" width="36" height="36" rx="5"></rect>
                        <rect id="矩形" stroke="none" fill="#FFFFFF" fill-rule="evenodd" x="66" y="159" width="7" height="62" rx="3.5"></rect>
                        <rect id="矩形备份-2" stroke="none" fill="#FFFFFF" fill-rule="evenodd" x="97" y="159" width="7" height="62" rx="3.5"></rect>
                        <rect id="矩形备份-6" stroke="none" fill="#FFFFFF" fill-rule="evenodd" x="126" y="159" width="7" height="62" rx="3.5"></rect>
                    </g>
                </g>
                <g id="编组-4" mask="url(#mask-3)" fill="#33D4F8" fill-rule="nonzero" stroke="#33D4F8" stroke-width="3">
                    <g transform="translate(33.000000, 182.142578)">
                        <path d="M33.4726562,127.333984 L25.0244141,101.829102 L24.8642578,101.829102 L16.4160156,127.333984 L33.4726562,127.333984 Z M35.9951172,135.181641 L13.8535156,135.181641 L9.36914062,148.234375 L0,148.234375 L21.2207031,89.8574219 L28.6279297,89.8574219 L49.8486328,148.234375 L40.5195312,148.234375 L35.9951172,135.181641 Z M95.1416606,141.507812 C93.3265473,143.589854 91.191152,145.284824 88.7354106,146.592773 C86.2796691,147.954108 83.4369241,148.661458 80.2070903,148.714844 C75.4490912,148.714844 71.2547915,147.149204 67.6240735,144.01788 L67.2744731,143.709961 C63.4307039,140.373356 61.4554632,134.968136 61.3486918,127.494141 C61.4554632,119.940066 63.4307039,114.468116 67.2744731,111.078125 C70.9847781,107.74152 75.2956074,106.099935 80.2070903,106.15332 C83.4369241,106.206706 86.2796691,106.874017 88.7354106,108.155273 C91.191152,109.463223 93.3265473,111.211578 95.1416606,113.400391 L88.975645,118.885742 C86.8669105,116.082994 84.0508579,114.628256 80.5274028,114.521484 C73.4271068,114.414713 69.8236273,118.738889 69.7168559,127.494141 C69.8236273,136.196007 73.4271068,140.480144 80.5274028,140.34668 C84.0508579,140.293294 86.8669105,138.851902 88.975645,136.022461 L95.1416606,141.507812 Z M140.755001,141.507812 C138.939888,143.589854 136.804492,145.284824 134.348751,146.592773 C131.893009,147.954108 129.050264,148.661458 125.820431,148.714844 C121.062431,148.714844 116.868132,147.149204 113.237414,144.01788 L112.887813,143.709961 C109.044044,140.373356 107.068803,134.968136 106.962032,127.494141 C107.068803,119.940066 109.044044,114.468116 112.887813,111.078125 C116.598118,107.74152 120.908948,106.099935 125.820431,106.15332 C129.050264,106.206706 131.893009,106.874017 134.348751,108.155273 C136.804492,109.463223 138.939888,111.211578 140.755001,113.400391 L134.588985,118.885742 C132.480251,116.082994 129.664198,114.628256 126.140743,114.521484 C119.040447,114.414713 115.436968,118.738889 115.330196,127.494141 C115.436968,136.196007 119.040447,140.480144 126.140743,140.34668 C129.664198,140.293294 132.480251,138.851902 134.588985,136.022461 L140.755001,141.507812 Z M162.104669,127.617187 C162.104669,130.825462 162.993101,136.29333 164.76999,138.020859 L164.987482,138.224609 C166.775902,139.986337 169.124837,140.867187 172.034357,140.867187 C175.424348,140.867187 178.45394,139.519219 181.123224,136.823242 L187.169122,141.988281 C182.924961,146.526064 177.933474,148.768229 172.194513,148.714844 C170.0057,148.714844 167.870305,148.394534 165.788263,147.753906 C164.747242,147.406899 163.732929,146.939782 162.745294,146.352539 C161.704273,145.845375 160.729999,145.218103 159.822443,144.470703 C158.060715,142.922518 156.63267,140.760431 155.538263,137.984375 C154.337085,135.315091 153.736505,131.845073 153.736505,127.574219 C153.736505,123.463521 154.257008,120.046889 155.298029,117.324219 C156.339049,114.548163 157.673672,112.359383 159.301935,110.757812 C160.956891,109.129549 162.812016,107.955082 164.867365,107.234375 C166.896021,106.513668 168.897954,106.15332 170.873224,106.15332 C175.62455,106.206706 179.641762,107.768214 182.924982,110.837891 C186.261587,113.960953 187.956557,118.258436 188.009943,123.730469 L188.009943,127.617187 L162.104669,127.617187 Z M179.641779,123.730469 C179.535007,120.500635 178.667503,118.058277 177.03924,116.40332 C175.437669,114.828443 173.382351,114.041016 170.873224,114.041016 C168.364097,114.041016 166.308779,114.828443 164.707208,116.40332 C163.132331,118.058277 162.264826,120.500635 162.104669,123.730469 L179.641779,123.730469 Z M205.99633,89.8574219 L214.364494,89.8574219 L214.364494,137.503906 C214.364494,139.399098 215.405499,140.34668 217.487541,140.34668 L220.370353,140.34668 L220.370353,148.234375 L216.64672,148.234375 C213.603736,148.234375 211.094647,147.47364 209.119377,145.952148 C207.037335,144.403964 205.99633,141.801451 205.99633,138.144531 L205.99633,89.8574219 Z" id="Accel"></path>
                        <path d="M199.886719,89.6835938 C204.531273,93.5006701 210.056609,95.4358721 216.462891,95.4892578 C224.043658,95.3824864 227.887369,92.6732036 227.994141,87.3613281 C228.047526,83.0103949 225.511744,80.3945357 220.386719,79.5136719 L216.261709,78.9427448 C215.105686,78.7806117 213.904846,78.6105695 212.65918,78.4326172 C207.640925,77.6051391 203.823906,75.7500144 201.208008,72.8671875 C198.512031,69.9042821 197.164063,66.3008025 197.164063,62.0566406 C197.164063,56.9583078 198.859033,52.8476719 202.249023,49.7246094 C205.532243,46.6282397 210.190074,45.0533857 216.222656,45 C223.483109,45.1601571 229.795872,47.1754364 235.161133,51.0458984 L230.236328,58.3330078 C225.858702,55.4501809 221.040716,53.9554042 215.782227,53.8486328 C213.059557,53.8486328 210.790699,54.5292901 208.975586,55.890625 C207.080394,57.3053456 206.10612,59.4140485 206.052734,62.2167969 C206.052734,63.8984459 206.706699,65.4199151 208.014648,66.78125 C209.322598,68.1692778 211.417954,69.1302057 214.300781,69.6640625 L215.263597,69.8184322 C216.743791,70.0475099 218.611642,70.3030178 220.867188,70.5849609 C226.33922,71.3323605 230.383125,73.294255 232.999023,76.4707031 C235.588229,79.5937656 236.882813,83.2239376 236.882813,87.3613281 C236.589191,98.518936 229.755926,104.177734 216.382813,104.337891 C207.734332,104.337891 200.300487,101.668646 194.081055,96.3300781 L199.886719,89.6835938 Z M254.909239,62.296875 L263.277403,62.296875 L263.277403,103.857422 L254.909239,103.857422 L254.909239,62.296875 Z M254.909239,45.4804688 L263.277403,45.4804688 L263.277403,53.8486328 L254.909239,53.8486328 L254.909239,45.4804688 Z M284.026485,62.296875 L292.394649,62.296875 L292.394649,66.7011719 L292.554806,66.7011719 C295.304168,63.4179523 298.920994,61.7763672 303.405391,61.7763672 C306.288218,61.8297529 308.610461,62.323563 310.372188,63.2578125 C312.107223,64.2988333 313.695423,65.6201092 315.136837,67.2216797 C318.393363,63.5380675 322.757578,61.7229815 328.22961,61.7763672 C331.672987,61.7763672 334.822695,62.9908733 337.678829,65.4199219 C340.50827,67.8756633 341.976354,71.4791429 342.083126,76.2304688 L342.083126,103.857422 L333.714962,103.857422 L333.714962,79.1132812 C333.714962,76.2037615 332.954227,73.9882889 331.432735,72.4667969 C329.911243,70.9186121 327.949349,70.1445312 325.546993,70.1445312 C323.144637,70.1445312 321.169397,70.9186121 319.621212,72.4667969 C318.046334,73.9882889 317.258907,76.2037615 317.258907,79.1132812 L317.258907,103.857422 L308.890743,103.857422 L308.890743,79.1132812 C308.890743,76.2037615 308.130008,73.9882889 306.608516,72.4667969 C305.060332,70.9186121 303.085091,70.1445312 300.682735,70.1445312 C298.394777,70.1445312 296.506331,70.8466454 295.017345,72.2508936 L294.796993,72.4667969 C293.195423,73.9882889 292.394649,76.2037615 292.394649,79.1132812 L292.394649,103.857422 L284.026485,103.857422 L284.026485,62.296875 Z" id="Sim" transform="translate(268.082090, 74.668945) rotate(-90.000000) translate(-268.082090, -74.668945) "></path>
                    </g>
                </g>
            </g>
        </g>
    </g>
</svg>